<?xml version="1.0" encoding="UTF-8"?><svg xmlns="http://www.w3.org/2000/svg" xmlns:xlink="http://www.w3.org/1999/xlink" fill-opacity="1" color-rendering="auto" color-interpolation="auto" text-rendering="auto" stroke="black" stroke-linecap="square" width="802" stroke-miterlimit="10" shape-rendering="auto" stroke-opacity="1" fill="black" stroke-dasharray="none" font-weight="normal" stroke-width="1" height="478" font-family="'Dialog'" font-style="normal" stroke-linejoin="miter" font-size="12px" stroke-dashoffset="0" image-rendering="auto">
  <!--Generated by ySVG 2.5-->
  <defs id="genericDefs"/>
  <g>
    <defs id="defs1">
      <clipPath clipPathUnits="userSpaceOnUse" id="clipPath1">
        <path d="M0 0 L802 0 L802 478 L0 478 L0 0 Z"/>
      </clipPath>
      <clipPath clipPathUnits="userSpaceOnUse" id="clipPath2">
        <path d="M25 90 L827 90 L827 568 L25 568 L25 90 Z"/>
      </clipPath>
    </defs>
    <g fill="white" text-rendering="geometricPrecision" shape-rendering="geometricPrecision" transform="translate(-25,-90)" stroke="white">
      <rect x="25" width="802" height="478" y="90" clip-path="url(#clipPath2)" stroke="none"/>
    </g>
    <g fill="rgb(242,242,242)" text-rendering="geometricPrecision" shape-rendering="geometricPrecision" stroke="rgb(242,242,242)">
      <line y2="478" fill="none" x1="-55" clip-path="url(#clipPath1)" x2="-55" y1="0"/>
      <line y2="478" fill="none" x1="-25" clip-path="url(#clipPath1)" x2="-25" y1="0"/>
      <line y2="478" fill="none" x1="5" clip-path="url(#clipPath1)" x2="5" y1="0"/>
      <line y2="478" fill="none" x1="35" clip-path="url(#clipPath1)" x2="35" y1="0"/>
      <line y2="478" fill="none" x1="65" clip-path="url(#clipPath1)" x2="65" y1="0"/>
      <line y2="478" fill="none" x1="95" clip-path="url(#clipPath1)" x2="95" y1="0"/>
      <line y2="478" fill="none" x1="125" clip-path="url(#clipPath1)" x2="125" y1="0"/>
      <line y2="478" fill="none" x1="155" clip-path="url(#clipPath1)" x2="155" y1="0"/>
      <line y2="478" fill="none" x1="185" clip-path="url(#clipPath1)" x2="185" y1="0"/>
      <line y2="478" fill="none" x1="215" clip-path="url(#clipPath1)" x2="215" y1="0"/>
      <line y2="478" fill="none" x1="245" clip-path="url(#clipPath1)" x2="245" y1="0"/>
      <line y2="478" fill="none" x1="275" clip-path="url(#clipPath1)" x2="275" y1="0"/>
      <line y2="478" fill="none" x1="305" clip-path="url(#clipPath1)" x2="305" y1="0"/>
      <line y2="478" fill="none" x1="335" clip-path="url(#clipPath1)" x2="335" y1="0"/>
      <line y2="478" fill="none" x1="365" clip-path="url(#clipPath1)" x2="365" y1="0"/>
      <line y2="478" fill="none" x1="395" clip-path="url(#clipPath1)" x2="395" y1="0"/>
      <line y2="478" fill="none" x1="425" clip-path="url(#clipPath1)" x2="425" y1="0"/>
      <line y2="478" fill="none" x1="455" clip-path="url(#clipPath1)" x2="455" y1="0"/>
      <line y2="478" fill="none" x1="485" clip-path="url(#clipPath1)" x2="485" y1="0"/>
      <line y2="478" fill="none" x1="515" clip-path="url(#clipPath1)" x2="515" y1="0"/>
      <line y2="478" fill="none" x1="545" clip-path="url(#clipPath1)" x2="545" y1="0"/>
      <line y2="478" fill="none" x1="575" clip-path="url(#clipPath1)" x2="575" y1="0"/>
      <line y2="478" fill="none" x1="605" clip-path="url(#clipPath1)" x2="605" y1="0"/>
      <line y2="478" fill="none" x1="635" clip-path="url(#clipPath1)" x2="635" y1="0"/>
      <line y2="478" fill="none" x1="665" clip-path="url(#clipPath1)" x2="665" y1="0"/>
      <line y2="478" fill="none" x1="695" clip-path="url(#clipPath1)" x2="695" y1="0"/>
      <line y2="478" fill="none" x1="725" clip-path="url(#clipPath1)" x2="725" y1="0"/>
      <line y2="478" fill="none" x1="755" clip-path="url(#clipPath1)" x2="755" y1="0"/>
      <line y2="478" fill="none" x1="785" clip-path="url(#clipPath1)" x2="785" y1="0"/>
      <line y2="478" fill="none" x1="815" clip-path="url(#clipPath1)" x2="815" y1="0"/>
      <line y2="-30" fill="none" x1="0" clip-path="url(#clipPath1)" x2="802" y1="-30"/>
      <line y2="0" fill="none" x1="0" clip-path="url(#clipPath1)" x2="802" y1="0"/>
      <line y2="30" fill="none" x1="0" clip-path="url(#clipPath1)" x2="802" y1="30"/>
      <line y2="60" fill="none" x1="0" clip-path="url(#clipPath1)" x2="802" y1="60"/>
      <line y2="90" fill="none" x1="0" clip-path="url(#clipPath1)" x2="802" y1="90"/>
      <line y2="120" fill="none" x1="0" clip-path="url(#clipPath1)" x2="802" y1="120"/>
      <line y2="150" fill="none" x1="0" clip-path="url(#clipPath1)" x2="802" y1="150"/>
      <line y2="180" fill="none" x1="0" clip-path="url(#clipPath1)" x2="802" y1="180"/>
      <line y2="210" fill="none" x1="0" clip-path="url(#clipPath1)" x2="802" y1="210"/>
      <line y2="240" fill="none" x1="0" clip-path="url(#clipPath1)" x2="802" y1="240"/>
      <line y2="270" fill="none" x1="0" clip-path="url(#clipPath1)" x2="802" y1="270"/>
      <line y2="300" fill="none" x1="0" clip-path="url(#clipPath1)" x2="802" y1="300"/>
      <line y2="330" fill="none" x1="0" clip-path="url(#clipPath1)" x2="802" y1="330"/>
      <line y2="360" fill="none" x1="0" clip-path="url(#clipPath1)" x2="802" y1="360"/>
      <line y2="390" fill="none" x1="0" clip-path="url(#clipPath1)" x2="802" y1="390"/>
      <line y2="420" fill="none" x1="0" clip-path="url(#clipPath1)" x2="802" y1="420"/>
      <line y2="450" fill="none" x1="0" clip-path="url(#clipPath1)" x2="802" y1="450"/>
      <line y2="480" fill="none" x1="0" clip-path="url(#clipPath1)" x2="802" y1="480"/>
    </g>
    <g text-rendering="geometricPrecision" stroke-miterlimit="1.45" stroke-width="2" shape-rendering="geometricPrecision" transform="matrix(1,0,0,1,-25,-90)" stroke-linecap="butt">
      <rect x="224" y="105" clip-path="url(#clipPath2)" fill="none" width="290" rx="4" ry="4" height="448"/>
      <rect fill="none" x="389" width="100" height="50" y="125" clip-path="url(#clipPath2)"/>
      <text x="424.8018" font-size="14px" y="155.5747" clip-path="url(#clipPath2)" font-family="'Microsoft YaHei'" stroke="none" stroke-width="1" xml:space="preserve">user</text>
      <rect x="628.5" y="107" clip-path="url(#clipPath2)" fill="none" width="183" rx="4" ry="4" height="81"/>
      <text x="712.7471" font-size="14px" y="153.0747" clip-path="url(#clipPath2)" font-family="'Microsoft YaHei'" stroke="none" stroke-width="1" xml:space="preserve">zk</text>
      <rect fill="none" x="389" width="100" height="50" y="215" clip-path="url(#clipPath2)"/>
      <text x="430.6602" font-size="14px" y="245.5747" clip-path="url(#clipPath2)" font-family="'Microsoft YaHei'" stroke="none" stroke-width="1" xml:space="preserve">ba</text>
      <rect fill="none" x="389" width="100" height="50" y="305" clip-path="url(#clipPath2)"/>
      <text x="426.3398" font-size="14px" y="335.5747" clip-path="url(#clipPath2)" font-family="'Microsoft YaHei'" stroke="none" stroke-width="1" xml:space="preserve">cart</text>
      <rect fill="none" x="389" width="100" height="50" y="395" clip-path="url(#clipPath2)"/>
      <text x="425.6904" font-size="14px" y="425.5747" clip-path="url(#clipPath2)" font-family="'Microsoft YaHei'" stroke="none" stroke-width="1" xml:space="preserve">cms</text>
      <rect fill="none" x="250" width="100" height="50" y="395" clip-path="url(#clipPath2)"/>
      <text x="275.7324" font-size="14px" y="425.5747" clip-path="url(#clipPath2)" font-family="'Microsoft YaHei'" stroke="none" stroke-width="1" xml:space="preserve">finance</text>
      <rect fill="none" x="250" width="100" height="50" y="305" clip-path="url(#clipPath2)"/>
      <text x="283.5288" font-size="14px" y="335.5747" clip-path="url(#clipPath2)" font-family="'Microsoft YaHei'" stroke="none" stroke-width="1" xml:space="preserve">front</text>
      <rect fill="none" x="251" width="100" height="50" y="215" clip-path="url(#clipPath2)"/>
      <text x="269.1855" font-size="14px" y="245.5747" clip-path="url(#clipPath2)" font-family="'Microsoft YaHei'" stroke="none" stroke-width="1" xml:space="preserve">merchant</text>
      <rect fill="none" x="249" width="100" height="50" y="125" clip-path="url(#clipPath2)"/>
      <text x="280.7549" font-size="14px" y="155.5747" clip-path="url(#clipPath2)" font-family="'Microsoft YaHei'" stroke="none" stroke-width="1" xml:space="preserve">order</text>
      <rect fill="none" x="389" width="100" height="50" y="485" clip-path="url(#clipPath2)"/>
      <text x="426.9551" font-size="14px" y="515.5747" clip-path="url(#clipPath2)" font-family="'Microsoft YaHei'" stroke="none" stroke-width="1" xml:space="preserve">pay</text>
      <rect fill="none" x="251" width="100" height="50" y="485" clip-path="url(#clipPath2)"/>
      <text x="277.2041" font-size="14px" y="515.5747" clip-path="url(#clipPath2)" font-family="'Microsoft YaHei'" stroke="none" stroke-width="1" xml:space="preserve">wechat</text>
      <rect x="628.5" y="289.5" clip-path="url(#clipPath2)" fill="none" width="183" rx="4" ry="4" height="81"/>
      <text x="709.0693" font-size="14px" y="335.5747" clip-path="url(#clipPath2)" font-family="'Microsoft YaHei'" stroke="none" stroke-width="1" xml:space="preserve">sso</text>
      <rect x="628.5" y="453.5" clip-path="url(#clipPath2)" fill="none" width="183" rx="4" ry="4" height="81"/>
      <text x="700.8286" font-size="14px" y="499.5747" clip-path="url(#clipPath2)" font-family="'Microsoft YaHei'" stroke="none" stroke-width="1" xml:space="preserve">cache</text>
      <rect x="40" y="185" clip-path="url(#clipPath2)" fill="none" width="100" rx="4" ry="4" height="50"/>
      <text x="70.6987" font-size="14px" y="215.5747" clip-path="url(#clipPath2)" font-family="'Microsoft YaHei'" stroke="none" stroke-width="1" xml:space="preserve">Client</text>
      <rect x="40" y="305" clip-path="url(#clipPath2)" fill="none" width="100" rx="4" ry="4" height="50"/>
      <text x="70.6987" font-size="14px" y="335.5747" clip-path="url(#clipPath2)" font-family="'Microsoft YaHei'" stroke="none" stroke-width="1" xml:space="preserve">Client</text>
      <rect x="40" y="425" clip-path="url(#clipPath2)" fill="none" width="100" rx="4" ry="4" height="50"/>
      <text x="70.6987" font-size="14px" y="455.5747" clip-path="url(#clipPath2)" font-family="'Microsoft YaHei'" stroke="none" stroke-width="1" xml:space="preserve">Client</text>
      <path fill="none" d="M526.379 147.5 L616.1187 147.5" clip-path="url(#clipPath2)"/>
      <path d="M514.004 147.5 L527.504 154.25 L527.504 140.75 Z" clip-path="url(#clipPath2)" stroke="none"/>
      <path d="M628.4937 147.5 L614.9937 140.75 L614.9937 154.25 Z" clip-path="url(#clipPath2)" stroke="none"/>
      <path fill="none" d="M526.4214 330.669 L612.7134 330.669 L612.7134 330 L616.1328 330" clip-path="url(#clipPath2)"/>
      <path d="M514.0464 330.669 L527.5464 337.419 L527.5464 323.919 Z" clip-path="url(#clipPath2)" stroke="none"/>
      <path d="M628.5078 330 L615.0078 323.25 L615.0078 336.75 Z" clip-path="url(#clipPath2)" stroke="none"/>
      <path fill="none" d="M526.3984 494.8761 L616.9991 494.8761 L616.9991 494 L628.4911 494" clip-path="url(#clipPath2)"/>
      <path d="M514.0234 494.8761 L527.5234 501.6261 L527.5234 488.1261 Z" clip-path="url(#clipPath2)" stroke="none"/>
      <path d="M628.4911 494 L614.9911 487.25 L614.9911 500.75 Z" clip-path="url(#clipPath2)" stroke="none"/>
      <path fill="none" d="M139.9817 210 L158.5776 210 L211.6169 208.5043" clip-path="url(#clipPath2)"/>
      <path d="M223.987 208.1555 L210.3021 201.7887 L210.6827 215.2834 Z" clip-path="url(#clipPath2)" stroke="none"/>
      <path fill="none" d="M140.002 331.4751 L211.5914 331.4751" clip-path="url(#clipPath2)"/>
      <path d="M223.9664 331.4751 L210.4664 324.7251 L210.4664 338.2251 Z" clip-path="url(#clipPath2)" stroke="none"/>
      <path fill="none" d="M140.0491 450 L174.5153 450 L211.5912 449.988" clip-path="url(#clipPath2)"/>
      <path d="M223.9662 449.984 L210.464 443.2384 L210.4684 456.7384 Z" clip-path="url(#clipPath2)" stroke="none"/>
    </g>
  </g>
</svg>
